HIERARCHY
ROOT Hips
{
	OFFSET 0.00000 0.00000 0.00000
	CHANNELS 6 Xposition Yposition Zposition Zrotation Yrotation Xrotation 
	JOINT LHipJoint
	{
		OFFSET 0 0 0
		CHANNELS 3 Zrotation Yrotation Xrotation
		JOINT LeftUpLeg
		{
			OFFSET 1.58161 -1.81893 0.78828
			CHANNELS 3 Zrotation Yrotation Xrotation
			JOINT LeftLeg
			{
				OFFSET 2.53374 -6.96141 0.00000
				CHANNELS 3 Zrotation Yrotation Xrotation
				JOINT LeftFoot
				{
					OFFSET 2.63509 -7.23986 0.00000
					CHANNELS 3 Zrotation Yrotation Xrotation
					JOINT LeftToeBase
					{
						OFFSET 0.14115 -0.38781 2.05350
						CHANNELS 3 Zrotation Yrotation Xrotation
						End Site
						{
							OFFSET 0.00000 -0.00000 1.05543
						}
					}
				}
			}
		}
	}
	JOINT RHipJoint
	{
		OFFSET 0 0 0
		CHANNELS 3 Zrotation Yrotation Xrotation
		JOINT RightUpLeg
		{
			OFFSET -1.11138 -1.81893 0.78828
			CHANNELS 3 Zrotation Yrotation Xrotation
			JOINT RightLeg
			{
				OFFSET -2.58392 -7.09926 0.00000
				CHANNELS 3 Zrotation Yrotation Xrotation
				JOINT RightFoot
				{
					OFFSET -2.66423 -7.31992 0.00000
					CHANNELS 3 Zrotation Yrotation Xrotation
					JOINT RightToeBase
					{
						OFFSET -0.18831 -0.51739 2.12114
						CHANNELS 3 Zrotation Yrotation Xrotation
						End Site
						{
							OFFSET -0.00000 -0.00000 1.09845
						}
					}
				}
			}
		}
	}
	JOINT LowerBack
	{
		OFFSET 0 0 0
		CHANNELS 3 Zrotation Yrotation Xrotation
		JOINT Spine
		{
			OFFSET -0.01511 1.97958 -0.08829
			CHANNELS 3 Zrotation Yrotation Xrotation
			JOINT Spine1
			{
				OFFSET 0.08344 1.97334 -0.04330
				CHANNELS 3 Zrotation Yrotation Xrotation
				JOINT Neck
				{
					OFFSET 0 0 0
					CHANNELS 3 Zrotation Yrotation Xrotation
					JOINT Neck1
					{
						OFFSET 0.00559 1.76246 0.31246
						CHANNELS 3 Zrotation Yrotation Xrotation
						JOINT Head
						{
							OFFSET -0.07011 1.80354 -0.30524
							CHANNELS 3 Zrotation Yrotation Xrotation
							End Site
							{
								OFFSET -0.02385 1.83547 -0.13906
							}
						}
					}
				}
				JOINT LeftShoulder
				{
					OFFSET 0 0 0
					CHANNELS 3 Zrotation Yrotation Xrotation
					JOINT LeftArm
					{
						OFFSET 3.20667 1.30156 -0.60240
						CHANNELS 3 Zrotation Yrotation Xrotation
						JOINT LeftForeArm
						{
							OFFSET 4.95663 -0.00000 0.00000
							CHANNELS 3 Zrotation Yrotation Xrotation
							JOINT LeftHand
							{
								OFFSET 3.38177 -0.00000 0.00000
								CHANNELS 3 Zrotation Yrotation Xrotation
								JOINT LeftFingerBase
								{
									OFFSET 0 0 0
									CHANNELS 3 Zrotation Yrotation Xrotation
									JOINT LeftHandIndex1
									{
										OFFSET 0.66291 -0.00000 0.00000
										CHANNELS 3 Zrotation Yrotation Xrotation
										End Site
										{
											OFFSET 0.53445 -0.00000 0.00000
										}
									}
								}
								JOINT LThumb
								{
									OFFSET 0 0 0
									CHANNELS 3 Zrotation Yrotation Xrotation
									End Site
									{
										OFFSET 0.54261 -0.00000 0.54261
									}
								}
							}
						}
					}
				}
				JOINT RightShoulder
				{
					OFFSET 0 0 0
					CHANNELS 3 Zrotation Yrotation Xrotation
					JOINT RightArm
					{
						OFFSET -3.06877 1.34672 -0.60964
						CHANNELS 3 Zrotation Yrotation Xrotation
						JOINT RightForeArm
						{
							OFFSET -5.08365 -0.00000 0.00000
							CHANNELS 3 Zrotation Yrotation Xrotation
							JOINT RightHand
							{
								OFFSET -3.35984 -0.00000 0.00000
								CHANNELS 3 Zrotation Yrotation Xrotation
								JOINT RightFingerBase
								{
									OFFSET 0 0 0
									CHANNELS 3 Zrotation Yrotation Xrotation
									JOINT RightHandIndex1
									{
										OFFSET -0.82076 -0.00000 0.00000
										CHANNELS 3 Zrotation Yrotation Xrotation
										End Site
										{
											OFFSET -0.66172 -0.00000 0.00000
										}
									}
								}
								JOINT RThumb
								{
									OFFSET 0 0 0
									CHANNELS 3 Zrotation Yrotation Xrotation
									End Site
									{
										OFFSET -0.67182 -0.00000 0.67182
									}
								}
							}
						}
					}
				}
			}
		}
	}
}
MOTION
Frames: 14
Frame Time: .0083333
-0.9651 16.9961 -3.4199 24.8939 25.0885 85.9463 0.0000 0.0000 0.0000 -1.5665 -19.4334 -58.5087 2.9394 10.5962 30.9299 0.3454 -3.8697 13.2095 0.2615 -3.2899 -9.0868 0.0000 0.0000 0.0000 -11.5777 3.6943 -104.9896 -4.9828 -13.3644 40.7483 0.4376 -12.7433 -10.2819 -1.2505 -7.0898 19.9816 7.8259 4.8687 17.5456 11.9449 7.4132 13.2120 7.5093 3.6602 3.9657 0.4301 -12.8930 -9.0914 1.8915 -17.9685 -12.1635 0.4016 -9.3438 -2.2656 0.0000 -0.0000 0.0000 -89.8709 -14.1548 68.5003 110.0399 -58.4268 -77.2634 -0.0000 0.0000 -16.4878 14.2572 28.4669 6.9059 -7.1250 0.0000 -0.0000 -18.3791 58.2469 -6.0892 0.0000 -0.0000 0.0000 -31.5831 37.1941 -37.8490 -10.3863 17.3415 -1.5881 0.0000 0.0000 23.0539 -38.5085 10.3028 -8.0992 7.1250 -0.0000 -0.0000 -7.9811 -16.9808 -5.3549
-0.9698 17.0190 -3.4141 24.6272 25.0684 85.7978 0.0000 0.0000 0.0000 -1.6889 -19.0856 -58.3126 2.9692 10.6450 31.0919 0.3344 -4.3257 13.3839 0.3406 -3.7505 -10.3757 0.0000 0.0000 0.0000 -11.6439 3.9935 -104.7027 -4.8811 -13.2486 40.3065 0.4468 -12.8288 -10.2560 -1.3787 -7.4302 20.9964 7.7340 4.9289 17.5445 11.9205 7.4747 13.2066 7.5210 3.6847 3.9449 0.5289 -12.8705 -9.0978 1.7900 -17.9527 -12.1356 0.3582 -9.3365 -2.2745 -0.0000 0.0000 0.0000 -89.7551 -14.1838 68.3344 110.1675 -58.4060 -77.3721 -0.0000 0.0000 -16.6663 14.1885 28.2927 6.8334 -7.1250 0.0000 -0.0000 -18.3348 58.0666 -5.9936 -0.0000 0.0000 0.0000 -30.9336 37.4223 -36.6139 -10.2978 17.2041 -1.5619 0.0000 0.0000 23.6137 -39.1440 10.6932 -8.5884 7.1250 -0.0000 -0.0000 -8.3521 -16.3895 -5.7177
-0.9668 17.0438 -3.4114 24.5363 25.1049 85.6552 0.0000 0.0000 0.0000 -1.7189 -19.0172 -58.0305 2.9946 10.6863 31.2290 0.3267 -4.6455 13.5166 0.3811 -3.9645 -10.9768 0.0000 0.0000 0.0000 -11.7013 4.1247 -104.2970 -4.7886 -13.1417 39.9012 0.4675 -12.9908 -10.0991 -1.4780 -7.6816 21.7512 7.7740 4.9421 17.5380 11.9253 7.4963 13.1897 7.5001 3.6971 3.9327 0.5678 -12.8892 -9.1128 1.8189 -17.9746 -12.0570 0.3557 -9.3487 -2.2463 0.0000 -0.0000 0.0000 -89.7122 -14.2233 68.3003 110.4277 -58.3630 -77.5937 -0.0000 0.0000 -16.7610 13.9811 28.5686 6.7899 -7.1250 0.0000 -0.0000 -18.7345 58.2827 -6.2286 0.0000 -0.0000 0.0000 -30.1299 36.8101 -32.7671 -10.5584 17.6082 -1.6398 0.0000 0.0000 21.2661 -39.2724 11.0105 -8.8761 7.1250 -0.0000 -0.0000 -8.3880 -15.9708 -5.8198
-0.9654 17.0678 -3.4080 24.3809 25.0826 85.4625 0.0000 0.0000 0.0000 -1.7928 -18.9058 -57.7403 3.0223 10.7310 31.3781 0.3468 -4.5514 13.7398 0.2989 -3.5156 -9.7176 0.0000 0.0000 0.0000 -11.7574 4.3285 -103.9076 -4.6986 -13.0361 39.5036 0.4969 -13.2285 -9.8987 -1.4546 -7.6233 21.5758 7.7590 4.9067 17.5973 11.8553 7.4572 13.1624 7.4268 3.6798 3.8805 0.4520 -12.8399 -9.1710 2.0368 -17.8628 -11.8512 0.4174 -9.2883 -2.1345 0.0000 0.0000 0.0000 -89.6102 -14.2283 68.0595 110.4659 -58.3567 -77.6262 -0.0000 0.0000 -16.7832 13.9945 28.9017 6.8683 -7.1250 0.0000 -0.0000 -18.9485 58.6005 -6.4490 0.0000 0.0000 0.0000 -29.2099 36.9735 -30.6459 -10.6368 17.7294 -1.6636 0.0000 0.0000 20.3947 -39.0941 11.7360 -9.3842 7.1250 -0.0000 -0.0000 -8.1510 -15.0980 -5.8065
-0.9509 17.0869 -3.4103 24.5407 25.0138 85.3660 0.0000 0.0000 0.0000 -1.9258 -19.2743 -57.3978 3.0464 10.7698 31.5074 0.3656 -4.3798 13.8818 0.2684 -3.3325 -9.2059 0.0000 0.0000 0.0000 -11.8570 4.1749 -103.4421 -4.6131 -12.9343 39.1232 0.5091 -13.3102 -9.7583 -1.4153 -7.5240 21.2773 7.8557 4.7830 17.5628 11.7619 7.3125 13.1069 7.2900 3.6205 3.8720 0.4471 -12.8255 -9.2321 2.1306 -17.8232 -11.6707 0.4302 -9.2666 -2.0544 0.0000 -0.0000 0.0000 -89.5235 -14.3013 67.9338 110.2040 -58.4000 -77.4031 -0.0000 0.0000 -16.9433 14.2690 29.0864 7.0479 -7.1250 0.0000 -0.0000 -18.7900 58.8361 -6.4996 0.0000 -0.0000 0.0000 -28.1931 36.7330 -27.4185 -10.8392 18.0413 -1.7258 0.0000 0.0000 18.5659 -38.7494 12.0109 -9.4816 7.1250 -0.0000 -0.0000 -7.8761 -14.8203 -5.6541
-0.9498 17.1076 -3.4093 24.3673 24.9947 85.1765 0.0000 0.0000 0.0000 -2.0655 -19.1172 -57.2044 3.0729 10.8121 31.6489 0.3629 -4.6733 14.0667 0.2888 -3.4557 -9.5503 0.0000 0.0000 0.0000 -11.8419 4.3748 -103.1235 -4.5270 -12.8305 38.7371 0.5050 -13.2171 -9.5745 -1.4065 -7.5016 21.2101 7.8133 4.7275 17.5746 11.6494 7.2435 13.0288 7.1877 3.5893 3.7899 0.3733 -12.8044 -9.1873 2.3004 -17.7638 -11.5838 0.4867 -9.2337 -2.0088 0.0000 -0.0000 0.0000 -89.4118 -14.3029 67.5208 109.7916 -58.4669 -77.0518 -0.0000 0.0000 -17.0435 14.2907 29.0448 7.0498 -7.1250 0.0000 -0.0000 -18.7385 58.8017 -6.4654 0.0000 -0.0000 0.0000 -27.0133 37.4587 -26.3656 -10.7297 17.8728 -1.6920 0.0000 0.0000 19.2771 -38.8143 12.3221 -9.7411 7.1250 -0.0000 -0.0000 -7.8692 -14.4227 -5.7163
-0.9448 17.1326 -3.4080 24.2886 25.0164 84.8935 0.0000 0.0000 0.0000 -2.2271 -19.0743 -56.8591 3.0995 10.8544 31.7905 0.3570 -4.9018 14.1616 0.3260 -3.6698 -10.1495 0.0000 0.0000 0.0000 -11.8823 4.5115 -102.5844 -4.4412 -12.7254 38.3490 0.5085 -13.2728 -9.6447 -1.4786 -7.6831 21.7557 7.7810 4.7050 17.5908 11.6134 7.2161 13.0039 7.1649 3.5766 3.7550 0.4385 -12.8383 -9.2526 2.3308 -17.8067 -11.4502 0.4742 -9.2562 -1.9568 -0.0000 0.0000 0.0000 -89.4305 -14.3023 67.2932 109.3902 -58.5306 -76.7095 -0.0000 0.0000 -17.0239 13.8813 28.8547 6.8011 -7.1250 0.0000 -0.0000 -19.0338 58.5310 -6.4474 -0.0000 0.0000 0.0000 -25.8584 36.9908 -22.4421 -11.0372 18.3452 -1.7876 0.0000 0.0000 17.1308 -39.0793 13.0696 -10.4058 7.1250 -0.0000 -0.0000 -7.9217 -13.4456 -5.9207
-0.9463 17.1599 -3.4042 23.9485 25.0537 84.4247 0.0000 0.0000 0.0000 -2.4404 -18.6761 -56.4489 3.1295 10.9019 31.9496 0.3520 -5.0979 14.2476 0.3712 -3.9132 -10.8327 0.0000 0.0000 0.0000 -11.7565 4.9201 -102.0483 -4.3542 -12.6174 37.9527 0.5118 -13.3252 -9.7144 -1.5812 -7.9331 22.5112 7.6963 4.7210 17.7801 11.5503 7.2503 12.9788 7.1138 3.5901 3.6213 0.4798 -12.8027 -9.4806 2.3461 -17.7462 -11.1435 0.4400 -9.2218 -1.8215 -0.0000 -0.0000 0.0000 -89.3416 -14.1759 66.9618 109.1805 -58.5632 -76.5306 -0.0000 0.0000 -17.0434 13.8290 28.8622 6.7762 -7.1250 0.0000 -0.0000 -19.0934 58.5265 -6.4664 -0.0000 -0.0000 0.0000 -24.5434 37.5227 -20.7215 -10.9871 18.2684 -1.7719 0.0000 0.0000 17.3054 -38.9470 14.3229 -11.3072 7.1250 -0.0000 -0.0000 -7.6239 -11.9269 -5.9379
-0.9395 17.1840 -3.4044 23.6722 24.9766 83.9986 0.0000 0.0000 0.0000 -2.6793 -18.5045 -56.0401 3.1570 10.9449 32.0944 0.3622 -5.0120 14.3235 0.3525 -3.8143 -10.5549 0.0000 0.0000 0.0000 -11.7252 5.2214 -101.5478 -4.2718 -12.5135 37.5737 0.5215 -13.3648 -9.5018 -1.5124 -7.7666 22.0073 7.5938 4.7104 17.8686 11.4326 7.2337 12.9401 7.0281 3.5807 3.5325 0.4420 -12.7234 -9.5754 2.4565 -17.6119 -10.9692 0.4612 -9.1493 -1.7351 -0.0000 0.0000 0.0000 -89.2128 -14.0840 66.6448 108.8792 -58.6095 -76.2735 -0.0000 0.0000 -17.1224 14.1748 28.8652 6.9517 -7.1250 0.0000 -0.0000 -18.7353 58.6060 -6.3756 -0.0000 0.0000 0.0000 -23.0686 38.0115 -18.8366 -10.9707 18.2433 -1.7667 0.0000 0.0000 17.2904 -38.8904 15.0986 -11.8658 7.1250 -0.0000 -0.0000 -7.4541 -10.9875 -5.9486
-0.9344 17.2091 -3.4043 23.4907 25.0047 83.5740 0.0000 0.0000 0.0000 -2.8607 -18.3572 -55.6650 3.1810 10.9825 32.2209 0.3793 -4.9492 14.5131 0.2780 -3.3912 -9.3698 0.0000 0.0000 0.0000 -11.6111 5.4488 -101.0075 -4.2018 -12.4242 37.2495 0.5271 -13.3895 -9.3819 -1.4070 -7.5028 21.2138 7.5441 4.6800 17.9147 11.3646 7.1960 12.9182 6.9787 3.5632 3.4876 0.3895 -12.6612 -9.6873 2.5628 -17.5017 -10.7913 0.4815 -9.0884 -1.6445 -0.0000 0.0000 0.0000 -89.0904 -14.0886 66.3583 108.5327 -58.6616 -75.9777 -0.0000 0.0000 -17.1315 14.2575 28.8119 6.9818 -7.1250 0.0000 -0.0000 -18.6123 58.5739 -6.3174 -0.0000 0.0000 0.0000 -21.5815 38.1876 -16.2370 -11.0882 18.4234 -1.8037 0.0000 0.0000 16.5734 -39.1190 15.1386 -11.9903 7.1250 -0.0000 -0.0000 -7.5947 -10.8864 -6.0787
-0.9288 17.2365 -3.4042 23.3573 25.0679 83.1339 0.0000 0.0000 0.0000 -3.1216 -18.1855 -55.2873 3.2032 11.0170 32.3372 0.3813 -5.1356 14.6874 0.2658 -3.3166 -9.1614 0.0000 0.0000 0.0000 -11.3856 5.6129 -100.4530 -4.1388 -12.3429 36.9559 0.5215 -13.3295 -9.3700 -1.4318 -7.5657 21.4027 7.5023 4.6354 17.9222 11.3299 7.1374 12.9115 6.9708 3.5354 3.4785 0.3778 -12.6339 -9.8256 2.6139 -17.4492 -10.5851 0.4771 -9.0572 -1.5500 -0.0000 -0.0000 0.0000 -89.0339 -14.1221 66.0772 108.1189 -58.7225 -75.6241 -0.0000 0.0000 -17.0736 14.1976 28.8552 6.9611 -7.1250 0.0000 -0.0000 -18.7045 58.6015 -6.3626 -0.0000 -0.0000 0.0000 -20.0849 38.3992 -13.9116 -11.1790 18.5621 -1.8325 0.0000 0.0000 16.2570 -39.1115 14.8047 -11.7359 7.1250 -0.0000 -0.0000 -7.6479 -11.2982 -6.0569
-0.9153 17.2620 -3.4098 23.3994 25.0088 82.8392 0.0000 0.0000 0.0000 -3.4951 -18.3095 -54.9820 3.2257 11.0517 32.4545 0.3727 -5.3567 14.7483 0.3082 -3.5693 -9.8681 0.0000 0.0000 0.0000 -11.3457 5.5658 -99.9247 -4.0774 -12.2627 36.6677 0.5192 -13.2449 -9.1291 -1.3240 -7.2873 20.5693 7.4428 4.5288 17.8370 11.2436 6.9948 12.8237 6.9284 3.4687 3.4355 0.3359 -12.5985 -9.7697 2.6917 -17.3825 -10.5384 0.5069 -9.0197 -1.5327 -0.0000 -0.0000 0.0000 -89.0177 -14.0432 65.7942 107.5514 -58.8034 -75.1389 -0.0000 0.0000 -17.0493 14.1307 28.6290 6.8780 -7.1250 0.0000 -0.0000 -18.6198 58.3727 -6.2293 -0.0000 -0.0000 0.0000 -18.3882 38.8184 -12.0843 -11.1850 18.5713 -1.8344 0.0000 0.0000 16.5389 -38.8832 14.4889 -11.4068 7.1250 -0.0000 -0.0000 -7.5541 -11.7368 -5.9125
-0.9170 17.2907 -3.4057 22.8936 25.0690 82.2413 0.0000 0.0000 0.0000 -3.6973 -17.7752 -54.6639 3.2499 11.0890 32.5806 0.3644 -5.5653 14.8063 0.3311 -3.6980 -10.2286 0.0000 0.0000 0.0000 -11.0716 6.1121 -99.3982 -4.0103 -12.1741 36.3505 0.5101 -13.0362 -8.6611 -0.9522 -6.2143 17.4074 7.3213 4.5977 18.0026 11.1719 7.0903 12.7490 6.8757 3.5097 3.2506 0.2902 -12.5685 -9.8397 2.7381 -17.3232 -10.3793 0.5133 -8.9834 -1.4622 -0.0000 0.0000 0.0000 -88.9025 -13.8883 65.4269 106.9486 -58.8863 -74.6230 -0.0000 0.0000 -17.0528 14.0419 28.2703 6.7556 -7.1250 0.0000 -0.0000 -18.4718 58.0134 -6.0166 -0.0000 0.0000 0.0000 -16.5220 39.2225 -9.7932 -11.2656 18.6941 -1.8601 0.0000 0.0000 16.1068 -38.4188 14.0161 -10.8735 7.1250 -0.0000 -0.0000 -7.3307 -12.4156 -5.6305
-0.9000 17.3139 -3.4106 22.8722 25.3046 81.8795 0.0000 0.0000 0.0000 -3.6431 -17.9821 -54.3485 3.2752 11.1277 32.7117 0.3810 -5.2566 14.7810 0.3352 -3.7206 -10.2920 0.0000 0.0000 0.0000 -10.8752 6.1227 -98.7739 -3.9375 -12.0768 36.0041 0.5116 -12.9839 -8.3607 -0.6950 -5.3292 14.8499 7.6210 4.4411 18.0072 11.0903 6.9458 12.6140 6.6318 3.4596 3.1569 0.2877 -12.5477 -10.0577 2.6829 -17.2886 -10.1521 0.4712 -8.9591 -1.3605 0.0000 -0.0000 0.0000 -88.8160 -13.7620 65.0799 106.2234 -58.9818 -74.0018 -0.0000 0.0000 -17.0865 14.0427 28.2097 6.7429 -7.1250 0.0000 -0.0000 -18.4310 57.9561 -5.9771 0.0000 -0.0000 0.0000 -14.5988 39.5136 -7.3656 -11.4043 18.9052 -1.9048 0.0000 0.0000 15.1330 -37.5799 13.5648 -10.2313 7.1250 -0.0000 -0.0000 -6.8520 -13.1359 -5.1533
